<svg width="20" height="20" viewBox="0 0 20 20" fill="none" xmlns="http://www.w3.org/2000/svg">
<path fill-rule="evenodd" clip-rule="evenodd" d="M9.15174 0.751612C9.37677 0.526647 9.68194 0.400269 10.0001 0.400269C10.3183 0.400269 10.6235 0.526647 10.8485 0.751612L19.2485 9.15161C19.4163 9.31944 19.5306 9.53323 19.5768 9.76597C19.6231 9.99872 19.5994 10.24 19.5085 10.4592C19.4177 10.6784 19.264 10.8658 19.0667 10.9977C18.8694 11.1296 18.6374 11.2 18.4001 11.2H17.2001V18.4C17.2001 18.7183 17.0737 19.0235 16.8487 19.2485C16.6236 19.4736 16.3184 19.6 16.0001 19.6H13.6001C13.2819 19.6 12.9767 19.4736 12.7516 19.2485C12.5266 19.0235 12.4001 18.7183 12.4001 18.4V14.8C12.4001 14.4818 12.2737 14.1765 12.0487 13.9515C11.8236 13.7264 11.5184 13.6 11.2001 13.6H8.80014C8.48188 13.6 8.17665 13.7264 7.95161 13.9515C7.72656 14.1765 7.60014 14.4818 7.60014 14.8V18.4C7.60014 18.7183 7.47371 19.0235 7.24866 19.2485C7.02362 19.4736 6.71839 19.6 6.40014 19.6H4.00013C3.68188 19.6 3.37665 19.4736 3.15161 19.2485C2.92656 19.0235 2.80013 18.7183 2.80013 18.4V11.2H1.60013C1.36283 11.2 1.13088 11.1296 0.933585 10.9977C0.736293 10.8658 0.582525 10.6784 0.491721 10.4592C0.400917 10.24 0.377154 9.99872 0.423435 9.76597C0.469716 9.53323 0.583964 9.31944 0.751735 9.15161L9.15174 0.751612Z" fill="#C0E9FA"/>
</svg>
