<svg width="19" height="19" viewBox="0 0 19 19" fill="none" xmlns="http://www.w3.org/2000/svg">
<g clip-path="url(#clip0_23_750)">
<path d="M2.98292 5.19701C4.19132 5.19701 5.17092 4.21741 5.17092 3.00901C5.17092 1.80062 4.19132 0.821014 2.98292 0.821014C1.77452 0.821014 0.794922 1.80062 0.794922 3.00901C0.794922 4.21741 1.77452 5.19701 2.98292 5.19701Z" fill="#C0E9FA"/>
<path d="M7.23722 6.85499V18.994H11.0062V12.991C11.0062 11.407 11.3042 9.87299 13.2682 9.87299C15.2052 9.87299 15.2292 11.684 15.2292 13.091V18.995H19.0002V12.338C19.0002 9.06799 18.2962 6.55499 14.4742 6.55499C12.6392 6.55499 11.4092 7.56199 10.9062 8.51499H10.8552V6.85499H7.23722ZM1.09521 6.85499H4.87021V18.994H1.09521V6.85499Z" fill="#C0E9FA"/>
</g>
<defs>
<clipPath id="clip0_23_750">
<rect width="19" height="19" fill="white"/>
</clipPath>
</defs>
</svg>
