<svg width="62" height="90" viewBox="0 0 62 90" fill="none" xmlns="http://www.w3.org/2000/svg">
<path d="M2 2.80495L1.89387 2.0625L1.25 2.15453V2.80495V87.1727V87.8238L1.89463 87.9153L2 87.1727C1.89463 87.9153 1.89476 87.9153 1.89494 87.9153L1.89554 87.9154L1.8976 87.9157L1.90516 87.9168L1.93388 87.9208L2.04427 87.9358C2.14087 87.9488 2.28277 87.9675 2.46569 87.9905C2.83152 88.0367 3.36158 88.1005 4.0216 88.1712C5.34121 88.3127 7.18258 88.4825 9.27097 88.5957C13.4276 88.821 18.6382 88.8273 22.6571 87.9037C43.4335 83.1287 60.2154 68.8692 60.7379 46.0349C61.2741 22.6039 43.975 7.01219 22.6584 2.0743C18.6401 1.14348 13.4287 1.14984 9.2717 1.37689C7.18302 1.49097 5.3413 1.66203 4.0214 1.80459C3.36124 1.8759 2.83105 1.94013 2.46513 1.98665C2.28215 2.00991 2.14021 2.02875 2.04358 2.04183L1.93315 2.05698L1.90442 2.061L1.89685 2.06207L1.89478 2.06237L1.89418 2.06245C1.894 2.06248 1.89387 2.0625 2 2.80495Z" fill="#0D060A" stroke="white" stroke-width="1.5"/>
<rect x="17.7427" y="8.99283" width="6.58156" height="25.9149" fill="#203C5C"/>
<rect x="17.7427" y="42.312" width="6.58156" height="38.6667" fill="#203C5C"/>
<rect x="36.5532" y="42.312" width="6.58156" height="34.1418" fill="#203C5C"/>
<rect x="36.5532" y="13.1064" width="6.58156" height="21.8014" fill="#203C5C"/>
<rect x="17.7427" y="27.6857" width="25.6857" height="7.45714" fill="#203C5C"/>
<rect x="17.7427" y="42.6" width="25.6857" height="7.45714" fill="#203C5C"/>
<rect x="10.207" y="8.54999" width="6.78571" height="73.0714" stroke="white" stroke-width="1.5"/>
<rect x="25.1216" y="11.0357" width="10.9286" height="16.7286" stroke="white" stroke-width="1.5"/>
<rect x="25.1216" y="50.8071" width="10.9286" height="29.1571" stroke="white" stroke-width="1.5"/>
<line x1="42.6787" y1="69.9429" x2="42.6787" y2="21.0572" stroke="white" stroke-width="1.5"/>
<path d="M9.54705 83.5032C8.38409 83.4401 7.30032 83.3584 6.35 83.2745V6.6999C7.30099 6.61528 8.38576 6.53288 9.54984 6.4693C13.6249 6.24673 18.2304 6.28362 21.5075 7.04273C41.2669 11.6199 56.1033 25.6373 55.6392 45.9182C55.1867 65.6922 40.8142 78.4977 21.5148 82.9332C18.2317 83.6878 13.6222 83.7241 9.54705 83.5032Z" stroke="white" stroke-width="8.7"/>
<path d="M9.51198 84.1501C8.09215 84.0731 6.78986 83.9686 5.70213 83.8659V6.10893C6.79036 6.00542 8.0936 5.9 9.51451 5.82239C13.6 5.59925 18.2824 5.63065 21.6537 6.41157C41.6109 11.0346 56.7602 25.2519 56.2869 45.933C55.8255 66.0958 41.1469 79.086 21.6599 83.5647C18.2834 84.3407 13.5975 84.3716 9.51198 84.1501Z" stroke="#203C5C" stroke-width="7.40425"/>
<mask id="path-14-outside-1_23_706" maskUnits="userSpaceOnUse" x="17.7427" y="32.5964" width="26" height="11" fill="black">
<rect fill="white" x="17.7427" y="32.5964" width="26" height="11"/>
<path d="M17.7427 34.5964H43.4284V42.0535H17.7427V34.5964Z"/>
</mask>
<path d="M17.7427 34.5964H43.4284V42.0535H17.7427V34.5964Z" fill="#0D060A"/>
<path d="M17.7427 36.0964H43.4284V33.0964H17.7427V36.0964ZM43.4284 40.5535H17.7427V43.5535H43.4284V40.5535Z" fill="white" mask="url(#path-14-outside-1_23_706)"/>
<rect x="15.2573" y="34.5964" width="29.8286" height="7.45714" fill="#0D060A"/>
</svg>
