<svg width="22" height="16" viewBox="0 0 22 16" fill="none" xmlns="http://www.w3.org/2000/svg">
<g clip-path="url(#clip0_23_775)">
<path d="M17.73 1.41L16.45 2.41L11 6.46L5.54995 2.37L4.26995 1.37C3.96841 1.12055 3.6003 0.965044 3.21124 0.922754C2.82218 0.880464 2.42926 0.953248 2.08116 1.13209C1.73306 1.31093 1.44508 1.58797 1.25289 1.92888C1.06071 2.26979 0.97276 2.6596 0.999952 3.05V14.64C0.999952 15.0007 1.14324 15.3466 1.39829 15.6017C1.65334 15.8567 1.99926 16 2.35995 16H5.54995V8.28L11 12.37L16.45 8.28V16H19.64C20.0006 16 20.3466 15.8567 20.6016 15.6017C20.8567 15.3466 21 15.0007 21 14.64V3.05C21.0187 2.66297 20.9247 2.27881 20.7292 1.94423C20.5337 1.60965 20.2453 1.33905 19.8989 1.16533C19.5525 0.991619 19.1632 0.922263 18.7781 0.965699C18.3931 1.00913 18.0289 1.16349 17.73 1.41Z" fill="white"/>
</g>
<defs>
<clipPath id="clip0_23_775">
<rect width="22" height="16" fill="white"/>
</clipPath>
</defs>
</svg>
